<?xml version="1.0" encoding="utf-8"?>
<!-- Generator: Adobe Illustrator 26.1.0, SVG Export Plug-In . SVG Version: 6.00 Build 0)  -->
<svg version="1.2" baseProfile="tiny" id="Capa_1" xmlns="http://www.w3.org/2000/svg" xmlns:xlink="http://www.w3.org/1999/xlink"
	 x="0px" y="0px" viewBox="0 0 726.7 346" overflow="visible" xml:space="preserve">
<g>
	<path
	 d="M506.8,323.4c-10.6-0.1-20.6,1-30.7,0.2c-1.8-0.1-2.2-1.8-3-3c-8.7-14.6-17.5-29.2-26-43.9
		c-1.6-2.8-3.4-3.7-6.6-3.7c-14.4,0.1-28.9-0.1-43.3-0.3c-3.3,0-2,2.4-2,3.7c-0.1,14.1-0.2,28.2,0,42.3c0,3.5-0.6,5.2-4.5,4.9
		c-7.1-0.4-14.2,0.6-21.3,0.1c-2.5-0.2-3.3-0.9-3-3.2c0.1-0.5,0-1,0-1.5c0-53.9,0.1-107.9,0-161.8c0-4,1.1-4.9,4.9-4.8
		c24.9,0.2,49.9-0.7,74.8,0.6c19.4,1,37.3,7.4,49.3,24.5c5.1,7.3,7.8,15.6,8.5,24.3c1.2,14.6,0,29-7.6,42.2
		c-5.5,9.5-12.8,16.8-22.8,21.3c-3.4,1.5-2.9,2.7-1.3,5.2c11.1,16.7,22.1,33.4,33.1,50.1C505.6,321.3,506,322,506.8,323.4z
		 M394.9,212.6C394.9,212.6,394.9,212.6,394.9,212.6c0.1,10.4,0.2,20.9,0,31.3c0,2.8,0.8,3.6,3.6,3.5c14.1-0.2,28.2,0.1,42.4-0.2
		c6.8-0.2,13.5-1.2,19.7-4.2c16.6-7.9,19.9-26.4,15.1-42.7c-4.2-14.5-16.4-22.5-34.1-22.7c-14.3-0.2-28.6,0.3-42.9,0.3
		c-3,0-4,0.8-3.9,3.9C395,192,394.9,202.3,394.9,212.6z"/>
	<path
	 d="M208.7,237.8c0-26.9,0.1-53.8-0.1-80.7c0-3.7,0.8-4.7,4.6-4.7c37.8,0.2,75.5,0.1,113.3,0c3.3,0,3.7,1,4.1,4
		c0.8,6.4-0.8,12.7,0.4,19c0.7,3.6-2.4,2.8-4.4,2.8c-19,0-37.9,0-56.9,0c-9.3,0-18.6,0.1-28,0c-3,0-4.4,0.4-4.3,4
		c0.2,12.9,0.2,25.9,0,38.9c0,3.2,1,3.8,4,3.7c25.3-0.1,50.5,0,75.8-0.2c3.1,0,4.4,0.5,4.2,4c-0.3,6.3-0.2,12.6,0,18.9
		c0.1,2.5-0.6,3.4-3.3,3.4c-14.9-0.1-29.9-0.1-44.8-0.1c-10.9,0-21.9,0.3-32.8,0.2c-3.1,0-2.9,1.6-2.9,3.7c0.1,13,0.2,25.9,0,38.9
		c-0.1,3.6,1.2,4.3,4.5,4.3c28.9-0.1,57.9,0,86.8-0.2c4.4,0,5.8,1.1,5.4,5.5c-0.4,5.1-0.3,10.3,0.1,15.4c0.4,4.4-1.6,5.3-5.3,5.3
		c-16.3-0.2-32.5-0.2-48.8-0.3c-22.6-0.1-45.2-0.1-67.8,0c-3.4,0-4.1-1-4-4.2C208.6,292.3,208.6,265.1,208.7,237.8
		C208.6,237.8,208.7,237.8,208.7,237.8z"/>
	<path
	 d="M163.4,198.2c-10.4-10.3-22.2-17.2-36.2-19.9c-31-5.9-62,11.2-70.5,43.4c-9.9,37.5,15.4,66.8,42.8,74.7
		c19.2,5.5,36.5,0.7,52.7-9.8c3.3-2.2,6.6-4.5,9.6-7.1c1.7-1.5,2.6-1.2,4,0.3c4.3,4.8,8.7,9.6,13.3,14.1c2,1.9,1.8,2.9-0.2,4.6
		c-13.2,11.3-27.6,20.2-44.6,24.4C92.8,333,48,312.3,31.6,270.7c-14.2-35.9-5.3-75.8,27.5-100.7c36.9-28.1,85.3-24.2,118.7,4.5
		c2.3,2,2.3,3,0.3,5.3C173,185.6,168.3,191.9,163.4,198.2z"/>
	<path
	 d="M612,143.6c53.4-0.4,99.2,43,95.6,102.8c-2.8,46.6-40.9,88.7-97.2,87.9c-51.4-0.7-93.2-40-93.8-93.1
		C515.8,183.3,560.5,143.9,612,143.6z M694.8,239c0-45.1-37.2-82.6-82.4-82.6c-45.6,0-82.7,35.6-82.9,81.8
		c-0.3,47.8,37.3,83.6,82.3,83.4C658.1,321.5,694.3,286.2,694.8,239z"/>
	<path  d="M98.3,102.6c10.1-24.3,20-48.4,30-72.4c2.6-6.2,5.2-12.4,7.4-18.7c1.2-3.4,3.1-4.5,6.5-4.4
		c8.3,0.2,16.6,0.2,24.9,0.3c1,0,2.5-0.6,2.7,1.2c0.2,1.8-1,2.2-2.4,2.5c-1.4,0.3-2.8,0.8-4.2,1.2c-4.2,1.2-6.5,3.3-6.5,8.3
		c0.2,30.1,0.2,60.1,0,90.2c0,5.4,1.7,8.2,7.1,9.4c2.1,0.5,6.5-0.1,5.7,3.7c-0.5,2.5-4,0.6-6.2,0.7c-10.6,0.2-21.2,0.2-31.8,0.1
		c-1.1,0-2.9,0.9-3.2-1.2c-0.3-1.8,1.3-2,2.5-2.5c11-4.3,11-4.4,11-16.4c0-25.7,0-51.5,0-77.2c0-1.6,0-3.3,0-4.8
		c-2.2-0.8-2.4,0.9-2.9,2c-10.2,23.1-19.7,46.5-29,69.9c-3.7,9.5-7.6,18.9-11.3,28.4c-0.9,2.4-1.9,4.7-4.9,4.6
		c-2.9-0.1-2.8-3-3.5-4.7C76.4,90.2,63,57.8,49.5,25.5c-0.3-0.8-0.2-2.1-1.9-2.2c0,4.9,0,9.8,0,14.7c0.1,23.1,0.2,46.2,0.3,69.2
		c0.1,9.3,1.2,10.8,10.2,13.4c1.5,0.4,3,0.4,2.7,2.6c-0.3,2.3-2.1,1.2-3.1,1.2c-9.3,0.1-18.6,0.1-27.9,0.1c-1,0-2.5,0.7-2.9-1
		c-0.5-2,1.1-2.2,2.3-2.5c13.8-3.5,10.8-4,11.2-16.8c0.8-23.9-0.1-47.8-0.3-71.7c0-3.9-0.2-7.9,0-11.8c0.3-5.1-2.5-7.4-6.9-8.6
		c-1.1-0.3-2.3-0.4-3.4-0.7c-1.5-0.4-3.8-0.4-3.6-2.6c0.3-2.4,2.6-1.5,4.1-1.5c8.4-0.1,16.9,0.1,25.3-0.2c2.8-0.1,2.7,1.7,3.4,3.3
		c9.2,21.9,18.4,43.7,27.5,65.6c3.4,8.3,7.8,16.2,10.3,24.9C97,101.5,97.7,102,98.3,102.6z"/>
	<path  d="M328,96c1.1-4.9,0.8-9.1,0.7-13.4c-0.2-20.4-0.4-40.8-0.3-61.3c0-5.6-1.8-8.8-7.4-9.6
		c-1.5-0.2-2.9-0.7-4.3-1.2c-1.1-0.4-2.4-0.9-2.2-2.3c0.2-1.7,1.8-1.1,2.8-1.1c9.6,0,19.2,0.1,28.9,0.2c1,0,2.5-0.8,2.9,0.9
		c0.5,1.9-1.2,2.2-2.3,2.7c-1.2,0.5-2.6,0.5-3.9,0.9c-4.6,1.2-6.7,4.1-6.9,8.9c-0.8,23,0.3,46-0.5,69c-0.4,10.5,0.8,21.2,0.4,31.8
		c-0.1,2,0.6,4-1.9,4.9c-2.5,0.9-3.7-1-4.8-2.5c-9.2-12.1-18.4-24.3-27.6-36.4c-13.9-18.4-27.7-36.8-41.6-55.2
		c-2.5-3.3-4.8-6.6-7.7-10.7c-0.1,2.3-0.3,3.8-0.2,5.3c0.3,17.9,1.9,35.7,0.8,53.6c-0.5,9,0.2,18.2,0.3,27.2
		c0.2,9.2,0.8,10,9.7,12.8c1.4,0.4,3.8-0.1,3.4,2.5c-0.3,2.9-2.6,1.4-3.9,1.4c-9.2,0.2-18.5,0.1-27.7,0.1c-1.2,0-2.9,0.8-3.2-1.2
		c-0.3-2,1.3-2,2.5-2.3c1.1-0.3,2.2-0.7,3.3-1c6.8-1.8,8.1-3.3,8.2-10.3c0.1-19.6,0.1-39.2,0.1-58.8c0-9.8-0.1-19.6-0.2-29.4
		c-0.1-6.7-1.2-7.8-7.5-9.6c-2.4-0.7-7-0.1-6.5-3.4c0.4-2.8,4.5-1,6.9-1.1c6.1-0.2,12.3,0.1,18.4-0.2c2.9-0.1,4.4,0.9,6.1,3.1
		c19.2,25.5,38.6,51,57.9,76.5C323.1,89.7,324.9,93.1,328,96z"/>
	<path  d="M641.8,126.7c-20.1,0.2-37.1-6.4-49.2-23c-8.1-11.2-10.6-24.1-10.8-37.8c-0.1-11.5,2.2-22.3,7.6-32.3
		c10-18.3,25.7-27.5,46.5-28.6c22.9-1.2,41.7,6,54.6,25.5c8.1,12.3,9.5,26.3,8.6,40.7c-0.5,6.8-1.9,13.4-4.1,19.8
		C688.4,111.4,665.4,127.7,641.8,126.7z M597.9,67.5c-0.4,6.5,0.8,15.6,4.1,24.4c5.9,15.9,17,25.9,34.2,27.8
		c22.1,2.5,35.3-9.4,41.5-22.4c5.5-11.5,6.4-23.9,5.7-36.3c-0.7-13.7-3.9-26.5-13.7-37.2c-15.1-16.3-47.2-16.7-60.9,2.6
		C600.6,38,597.9,50.9,597.9,67.5z"/>
	<path  d="M369.5,53.7c0-10.6,0.1-21.2,0-31.9c-0.1-7.7-1.2-8.9-8.7-10.8c-0.8-0.2-1.6-0.3-2.4-0.5
		c-1.2-0.4-2.9-0.6-2.6-2.4c0.3-1.5,1.8-1.1,2.9-1.1c12.1,0.1,24.3,0.1,36.4,0.3c1.2,0,3.1-0.7,3,1.4c-0.1,1.4-1.6,2.1-2.9,2.1
		c-1.9,0-3.6,0.5-5.3,1.1c-3.6,1.1-5.5,3.6-5.5,7.3c0.2,23.9-0.7,47.8,0.4,71.7c0.8,17.4,13.6,26,28.8,26c6.4,0,12.9,0.7,19.1-1.4
		c13.2-4.3,18.3-13.1,18.9-26c0.7-17.7,0.5-35.4,0.5-53.2c0-6.1-0.5-12.2-0.7-18.3c-0.1-5.5-4.6-5.7-8.2-6.9c-1.9-0.7-5.4-0.2-5-2.5
		c0.4-3,3.8-1.3,5.8-1.4C452.7,7,461.3,7,470,7.1c0.9,0,2.1-0.8,2.5,0.6c0.4,1.5-0.6,2.2-1.8,2.3c-11.4,1.3-11.4,9.7-11.4,18.1
		c0,19.3,0.2,38.5-0.1,57.8c-0.3,14.4-4.6,27.2-18.4,34.5c-7.6,4.1-15.9,5.6-24.7,5.8c-7.4,0.2-14.4-0.8-21.3-3.1
		c-16.2-5.6-24.8-18.4-25.2-37c-0.2-10.8,0-21.6,0-32.4C369.6,53.7,369.5,53.7,369.5,53.7z"/>
	<path  d="M533.1,61.7c0,13.6,0.1,27.2-0.1,40.8c-0.1,4,0.6,7.9,1.1,11.8c0.5,4.5,4.7,4.9,8.1,6.2
		c2,0.8,5.9-0.7,5.6,2.4c-0.4,3.5-4.1,1.3-6.1,1.4c-11.3,0.3-22.5,0.2-33.8,0.2c-1.3,0-3.3,1-3.7-1.2c-0.4-2.5,1.9-2.1,3.4-2.5
		c11.9-3.2,10.9-3.5,11.2-15c0.7-27.5,0.2-55.1,0.2-82.7c0-10-0.1-10-10-10c-7.5,0-15,0-20.6,6.1c-3.2,3.5-5.1,7.7-6.4,12.1
		c-0.4,1.5-0.7,3.5-3.1,3.1c-2.6-0.4-1.7-2.5-1.6-4c0-7,0.2-13.9,0.3-20.9c0-2.4,0.8-3.2,3.6-3.1c28.2,1.4,56.5,0.6,84.7,0.7
		c1.5,0,3,0,4.5-0.1c2.7-0.3,3.6,0.5,3.7,3.5c0.1,6.7,0.9,13.5,1.4,20.2c0.1,1.5,1.2,3.3-1.6,3.8c-2.5,0.4-3.2-0.8-3.6-2.8
		c-0.4-1.6-0.9-3.1-1.4-4.7c-3.1-10-10.4-13.8-20.3-13.9c-5,0-11.5-1.9-14.5,0.5c-3.1,2.5-0.9,9.3-0.9,14.2
		C533,39.1,533.1,50.4,533.1,61.7z"/>
	<path  d="M201.8,7.3c6.2,0,12.3,0,18.5,0c0.9,0,2.1-0.6,2.3,0.9c0.3,1.4-0.4,2.5-1.7,2.5
		c-11.2,0.4-11.7,7.5-11.5,16.4c0.3,19.7-0.6,39.5-0.4,59.2c0.1,8.1,0.7,16.2,0.5,24.3c-0.1,5,2,8.2,7.1,9.1c1.3,0.2,2.5,0.8,3.8,1
		c1.6,0.2,2.4,0.9,2.2,2.6c-0.3,1.9-1.7,1.1-2.7,1.1c-12.2,0-24.4,0-36.6,0c-1.3,0-2.8,0.4-3-1.6c-0.1-1.6,1-1.8,2.2-2.1
		c1.4-0.3,2.8-0.8,4.2-1.1c4.6-1,6.9-3.6,7.1-8.6c1-25.7,1-51.4,0.1-77.1c-0.2-4.4,0-8.8,0-13.2c0-5.7-2.7-8-7.4-9.3
		c-0.8-0.2-1.6-0.4-2.4-0.6c-1.5-0.4-3.8-0.1-3.4-2.6c0.3-2.2,2.4-1.2,3.6-1.3c5.8-0.1,11.6,0,17.4,0C201.8,7.1,201.8,7.2,201.8,7.3
		z"/>
	<path  d="M657.1,198.1c-0.9,1-1.5,1.8-2.1,2.6c-11,13-22.1,26-33.1,39.1c-0.6,0.7-1.4,1.2-1.5,2.3c-0.5,4-3,6.3-7,6
		c-2.4-0.2-3.5,0.7-4.9,2.5c-5.4,7.1-11,14.1-16.6,21.1c-0.8,1-1.4,3.1-3.4,1.6c-1.9-1.5-0.2-2.6,0.6-3.7
		c4.9-6.9,9.7-13.8,14.7-20.5c3.6-4.8,3.5-9.1,0.3-14.2c-6.6-10.5-12.7-21.2-19.1-31.8c-1-1.7-2-3.4,0-4.7c2.3-1.5,2.7,1.2,3.5,2.2
		c7.6,9.6,15,19.4,22.5,29.1c3.8,4.9,3.7,4.8,7.9,0.7c10.8-10.7,21.8-21.4,32.7-32.1c1-1,1.9-2.6,3.7-1.6
		C655.9,196.8,656.4,197.5,657.1,198.1z"/>
	<path  d="M663.8,267.1c1.5-0.1,13.8,7,14.5,8.1c0.8,1.5-0.2,2.6-0.9,3.6c-0.6,0.9-1.7,1.3-3,0.5
		c-3.9-2.4-7.9-4.6-11.9-7c-1.2-0.7-1.9-1.8-1.2-3.4C661.8,267.8,662.4,266.9,663.8,267.1z"/>
	<path  d="M545,242.3c-2,0-4,0-6,0c-2,0-3.2-1.1-3.3-2.9c0-1.8,1.1-3,3.1-3c3.6,0,7.3,0,10.9,0.1
		c2.2,0.1,4.2,0.9,4.1,3.3c-0.1,2.9-2.6,2.4-4.5,2.4C547.9,242.3,546.4,242.3,545,242.3z"/>
	<path  d="M548,279.1c-1.3-0.3-2-1.3-2.4-2.7c-0.5-1.5,0.3-2.5,1.4-3.1c3.5-2.1,7.1-4.1,10.6-6.1
		c1.3-0.7,2.6-0.5,3.7,0.4c1,0.8,0.9,2.1,0.5,3.2C561.6,271.8,549.4,279.2,548,279.1z"/>
	<path  d="M678.8,242.3c-1.8,0-3.6-0.1-5.4,0c-1.7,0.1-3.1-0.7-3.3-2.2c-0.3-1.8,1.2-3.3,2.9-3.4
		c4.3-0.3,8.6-0.2,12.8-0.1c1.4,0,2.2,1.2,2.2,2.8c-0.1,1.7-0.9,2.8-2.7,2.9C683.1,242.3,681,242.3,678.8,242.3z"/>
	<path  d="M677.6,200.8c0.6,3.3-1.2,3.9-2.4,4.4c-4.3,1.8-7.4,6.7-12.6,5.7c-2-0.4-2.4-3.2-0.1-4.6
		c3.6-2.3,7.4-4.3,11.1-6.4C676,198.6,677.3,199.7,677.6,200.8z"/>
	<path  d="M562.1,209.1c-0.3,3-2.2,3-4.2,2c-3.5-1.8-6.9-3.8-10.4-5.7c-1.9-1-2-2.6-1.3-4.2c0.9-1.8,2.2-2.1,4.1-1
		c3.2,2,6.5,3.9,9.7,5.8C561.2,206.7,562.3,207.4,562.1,209.1z"/>
	<path  d="M642.2,288c0.6,0.3,1.4,0.5,1.7,1c2.4,4.3,4.8,8.5,7,12.9c0.7,1.3-0.4,2.6-1.7,3.1c-1.2,0.5-2.4,0.1-3-1
		c-2.3-4-4.6-7.9-6.6-12C638.5,289.8,640.5,288.8,642.2,288z"/>
	<path  d="M648.4,172.7c1.5,0.8,3.5,1.6,2.5,3.6c-2,4.1-4.4,8.1-6.6,12.1c-0.8,1.5-2.3,1.4-3.5,0.6
		c-1-0.7-2.3-1.6-1.3-3.2c2.3-4,4.7-7.9,7-11.9C646.9,173.2,647.5,172.6,648.4,172.7z"/>
	<path  d="M608.9,306c0-2,0-4,0-5.9c0-1.8,0.8-2.9,2.5-3c1.9-0.2,2.7,1.1,2.7,2.8c0.2,4.1,0.3,8.3,0.3,12.4
		c0,1.7-0.8,2.8-2.7,2.8c-2.1,0-2.9-1.1-2.9-3.1C608.9,310,608.9,308,608.9,306z"/>
	<path  d="M575.4,173.1c3.8,2.1,4.6,6.8,7.2,10.2c1.1,1.4,2.2,3.1,0.9,4.9c-1.2,1.5-2.9,2-4.1,0.1
		c-2.4-3.7-4.8-7.4-6.9-11.3C571.3,174.9,572.7,173.7,575.4,173.1z"/>
	<path  d="M584.5,292.1c-2.4,4.1-4.9,8.3-7.6,12.5c-0.7,1.1-2.2,0.8-3.1,0.1c-1.1-0.8-1.8-1.8-0.9-3.3
		c2.2-3.7,4.2-7.5,6.3-11.2c0.8-1.5,2.3-1.2,3.5-0.9C584,289.5,584.4,290.6,584.5,292.1z"/>
	<path
	 d="M614.2,172.3c0,2,0.1,3.9,0,5.9c-0.1,1.8-0.6,3.4-2.8,3.2c-1.8-0.1-2.5-1.3-2.5-3c0-3.9,0-7.9,0-11.8
		c0-2,0.8-3.1,2.9-3.1c2.4,0,2.4,1.8,2.5,3.5c0.1,1.8,0,3.6,0,5.4C614.3,172.3,614.3,172.3,614.2,172.3z"/>
</g>
</svg>
